<svg xmlns="http://www.w3.org/2000/svg" viewBox="0 0 100 100">
  <defs>
    <linearGradient id="goldGradient" x1="0%" y1="0%" x2="100%" y2="100%">
      <stop offset="0%" stop-color="#f5e7c1" />
      <stop offset="50%" stop-color="#e6c87a" />
      <stop offset="100%" stop-color="#c8a45c" />
    </linearGradient>
    <filter id="glow" x="-20%" y="-20%" width="140%" height="140%">
      <feGaussianBlur stdDeviation="2" result="blur" />
      <feComposite in="SourceGraphic" in2="blur" operator="over" />
    </filter>
  </defs>
  
  <!-- Main shield shape -->
  <path 
    d="M50,5 L95,25 L95,55 C95,75 75,90 50,95 C25,90 5,75 5,55 L5,25 L50,5 Z" 
    fill="url(#goldGradient)"
    stroke="#ffffff"
    stroke-width="0.5"
    opacity="0.9"
  />
  
  <!-- Inner shield lines -->
  <path 
    d="M50,15 L85,30 L85,55 C85,70 70,80 50,85 C30,80 15,70 15,55 L15,30 L50,15 Z" 
    fill="none"
    stroke="#ffffff"
    stroke-width="0.5"
    opacity="0.7"
  />
  
  <!-- Light points/shine effects -->
  <circle cx="20" cy="30" r="1.5" fill="#ffffff" opacity="0.9" filter="url(#glow)" />
  <circle cx="80" cy="30" r="1.5" fill="#ffffff" opacity="0.9" filter="url(#glow)" />
  <circle cx="50" cy="15" r="1.5" fill="#ffffff" opacity="0.9" filter="url(#glow)" />
  <circle cx="50" cy="85" r="1.5" fill="#ffffff" opacity="0.9" filter="url(#glow)" />
  <circle cx="15" cy="55" r="1.5" fill="#ffffff" opacity="0.9" filter="url(#glow)" />
  <circle cx="85" cy="55" r="1.5" fill="#ffffff" opacity="0.9" filter="url(#glow)" />
</svg>